<svg xmlns="http://www.w3.org/2000/svg" width="1080" height="1080" viewBox="0 0 1080 1080">
  <path id="max" d="M82.143,699.286A77.37,77.37,0,0,0,5,776.428v231.429A77.37,77.37,0,0,0,82.143,1085H313.571a77.143,77.143,0,1,0,0-154.286H159.286V776.428A77.37,77.37,0,0,0,82.143,699.286Zm0-308.571a77.37,77.37,0,0,0,77.143-77.143V159.286H313.571A77.143,77.143,0,1,0,313.571,5H82.143A77.37,77.37,0,0,0,5,82.143V313.571A77.37,77.37,0,0,0,82.143,390.714Zm848.571,540H776.428a77.143,77.143,0,0,0,0,154.286h231.429A77.37,77.37,0,0,0,1085,1007.857V776.428a77.143,77.143,0,0,0-154.286,0ZM699.286,82.143a77.37,77.37,0,0,0,77.143,77.143H930.714V313.571a77.143,77.143,0,1,0,154.286,0V82.143A77.37,77.37,0,0,0,1007.857,5H776.428A77.37,77.37,0,0,0,699.286,82.143Z" transform="translate(-5 -5)" fill="#fff"/>
</svg>
